<svg width="150" height="150" viewBox="0 0 300 300" fill="none" xmlns="http://www.w3.org/2000/svg">
    <circle cx="150" cy="150.5" r="150" fill="#3F81FF"/>
    <path d="M111.479 85.3429L108.071 71.0952H161.682C174.129 71.0952 184.304 73.3419 192.206 77.8353C200.16 82.2771 206.048 88.2942 209.87 95.8865C213.692 103.479 215.603 111.949 215.603 121.298C215.603 130.646 213.692 139.142 209.87 146.786C206.1 154.43 200.263 160.525 192.361 165.07C184.459 169.563 174.336 171.81 161.992 171.81H161.372V154.766C169.894 154.766 176.737 153.294 181.902 150.35C187.067 147.406 190.812 143.429 193.136 138.419C195.512 133.358 196.7 127.65 196.7 121.298C196.7 114.945 195.512 109.263 193.136 104.254C190.812 99.2437 187.041 95.3184 181.825 92.4777C176.608 89.5854 169.687 88.1392 161.062 88.1392H127.284L111.479 85.3429Z" fill="white"/>
    <path d="M192.359 233.549C186.368 233.549 181.099 231.793 176.554 228.281C172.061 224.768 168.549 219.371 166.018 212.089L137.508 130.587L131.93 117.572L127.282 105.486C125.164 100.011 122.892 95.9054 120.464 93.168C118.088 90.4306 115.196 88.8037 111.787 88.2872C108.378 87.7707 104.143 88.1323 99.0815 89.3718L94.4332 73.2575C95.3628 72.8443 97.0414 72.3795 99.4689 71.863C101.896 71.3465 104.66 71.0883 107.758 71.0883C116.281 71.0883 123.408 73.3091 129.141 77.7509C134.874 82.1927 139.419 88.9586 142.776 98.0488L183.372 207.75C184.095 209.765 185.051 211.779 186.238 213.793C187.426 215.756 189.57 216.737 192.669 216.737C193.288 216.737 194.037 216.685 194.915 216.582C195.845 216.479 196.542 216.427 197.007 216.427L201.036 232.542C199.538 232.903 198.04 233.161 196.542 233.316C195.096 233.523 193.702 233.6 192.359 233.549ZM88.2354 231.922L134.719 105.796L142.156 140.504H139.677L108.068 231.922H88.2354Z" fill="white"/>
    <path d="M111.479 85.3429L108.071 71.0952H161.682C174.129 71.0952 184.304 73.3419 192.206 77.8353C200.16 82.2771 206.048 88.2942 209.87 95.8865C213.692 103.479 215.603 111.949 215.603 121.298C215.603 130.646 213.692 139.142 209.87 146.786C206.1 154.43 200.263 160.525 192.361 165.07C184.459 169.563 174.336 171.81 161.992 171.81H161.372V154.766C169.894 154.766 176.737 153.294 181.902 150.35C187.067 147.406 190.812 143.429 193.136 138.419C195.512 133.358 196.7 127.65 196.7 121.298C196.7 114.945 195.512 109.263 193.136 104.254C190.812 99.2437 187.041 95.3184 181.825 92.4777C176.608 89.5854 169.687 88.1392 161.062 88.1392H127.284L111.479 85.3429Z" stroke="white" stroke-width="0.5"/>
    <path d="M192.359 233.549C186.368 233.549 181.099 231.793 176.554 228.281C172.061 224.768 168.549 219.371 166.018 212.089L137.508 130.587L131.93 117.572L127.282 105.486C125.164 100.011 122.892 95.9054 120.464 93.168C118.088 90.4306 115.196 88.8037 111.787 88.2872C108.378 87.7707 104.143 88.1323 99.0815 89.3718L94.4332 73.2575C95.3628 72.8443 97.0414 72.3795 99.4689 71.863C101.896 71.3465 104.66 71.0883 107.758 71.0883C116.281 71.0883 123.408 73.3091 129.141 77.7509C134.874 82.1927 139.419 88.9586 142.776 98.0488L183.372 207.75C184.095 209.765 185.051 211.779 186.238 213.793C187.426 215.756 189.57 216.737 192.669 216.737C193.288 216.737 194.037 216.685 194.915 216.582C195.845 216.479 196.542 216.427 197.007 216.427L201.036 232.542C199.538 232.903 198.04 233.161 196.542 233.316C195.096 233.523 193.702 233.6 192.359 233.549ZM88.2354 231.922L134.719 105.796L142.156 140.504H139.677L108.068 231.922H88.2354Z" stroke="white" stroke-width="0.5"/>
</svg>
